<svg width="19" height="18" viewBox="0 0 19 18" fill="none" xmlns="http://www.w3.org/2000/svg">
<path fill-rule="evenodd" clip-rule="evenodd" d="M0.499512 3C0.499512 2.20435 0.815582 1.44129 1.37819 0.87868C1.9408 0.316071 2.70386 0 3.49951 0H15.4995C16.2952 0 17.0582 0.316071 17.6208 0.87868C18.1834 1.44129 18.4995 2.20435 18.4995 3V15C18.4995 15.7956 18.1834 16.5587 17.6208 17.1213C17.0582 17.6839 16.2952 18 15.4995 18H3.49951C2.70386 18 1.9408 17.6839 1.37819 17.1213C0.815582 16.5587 0.499512 15.7956 0.499512 15V3ZM10.4995 5C10.4995 4.73478 10.3942 4.48043 10.2066 4.29289C10.0191 4.10536 9.76473 4 9.49951 4C9.23429 4 8.97994 4.10536 8.79241 4.29289C8.60487 4.48043 8.49951 4.73478 8.49951 5V13C8.49951 13.2652 8.60487 13.5196 8.79241 13.7071C8.97994 13.8946 9.23429 14 9.49951 14C9.76473 14 10.0191 13.8946 10.2066 13.7071C10.3942 13.5196 10.4995 13.2652 10.4995 13V5ZM6.49951 8C6.49951 7.73478 6.39415 7.48043 6.20662 7.29289C6.01908 7.10536 5.76473 7 5.49951 7C5.2343 7 4.97994 7.10536 4.79241 7.29289C4.60487 7.48043 4.49951 7.73478 4.49951 8V13C4.49951 13.2652 4.60487 13.5196 4.79241 13.7071C4.97994 13.8946 5.2343 14 5.49951 14C5.76473 14 6.01908 13.8946 6.20662 13.7071C6.39415 13.5196 6.49951 13.2652 6.49951 13V8ZM14.4995 11C14.4995 10.7348 14.3942 10.4804 14.2066 10.2929C14.0191 10.1054 13.7647 10 13.4995 10C13.2343 10 12.9799 10.1054 12.7924 10.2929C12.6049 10.4804 12.4995 10.7348 12.4995 11V13C12.4995 13.2652 12.6049 13.5196 12.7924 13.7071C12.9799 13.8946 13.2343 14 13.4995 14C13.7647 14 14.0191 13.8946 14.2066 13.7071C14.3942 13.5196 14.4995 13.2652 14.4995 13V11Z" fill="#98A2B3"/>
</svg>
