<svg width="582" height="274" viewBox="0 0 582 274" fill="none" xmlns="http://www.w3.org/2000/svg">
    <g clip-path="url(#clip0_11005_438)">
        <rect width="582" height="274" rx="20" fill="#067647" />
        <g opacity="0.2">
            <path d="M368.17 -39.6568L405.204 -39.6568L278.08 130L251.17 109.057L368.17 -39.6568Z"
                fill="url(#paint0_linear_11005_438)" />
            <path d="M418.17 -39.6568L455.204 -39.6568L328.08 130L301.17 109.057L418.17 -39.6568Z"
                fill="url(#paint1_linear_11005_438)" />
            <path d="M467.17 -39.6568L504.204 -39.6568L377.08 130L350.17 109.057L467.17 -39.6568Z"
                fill="url(#paint2_linear_11005_438)" />
            <path d="M517.17 -39.6568L554.204 -39.6568L427.08 130L400.17 109.057L517.17 -39.6568Z"
                fill="url(#paint3_linear_11005_438)" />
            <path d="M565.17 -37.6568L602.204 -37.6568L475.08 132L448.17 111.057L565.17 -37.6568Z"
                fill="url(#paint4_linear_11005_438)" />
            <path d="M591.17 1.34322L628.204 1.34321L501.08 171L474.17 150.057L591.17 1.34322Z"
                fill="url(#paint5_linear_11005_438)" />
            <path d="M626.17 24.3432L663.204 24.3432L536.08 194L509.17 173.057L626.17 24.3432Z"
                fill="url(#paint6_linear_11005_438)" />
        </g>
    </g>
    <defs>
        <linearGradient id="paint0_linear_11005_438" x1="389.999" y1="-51.05" x2="262.875"
            y2="118.607" gradientUnits="userSpaceOnUse">
            <stop stop-color="#B7ABFF" stop-opacity="0.42" />
            <stop offset="1" stop-color="white" stop-opacity="0" />
        </linearGradient>
        <linearGradient id="paint1_linear_11005_438" x1="439.999" y1="-51.05" x2="312.875"
            y2="118.607" gradientUnits="userSpaceOnUse">
            <stop stop-color="#B7ABFF" stop-opacity="0.42" />
            <stop offset="1" stop-color="white" stop-opacity="0" />
        </linearGradient>
        <linearGradient id="paint2_linear_11005_438" x1="488.999" y1="-51.05" x2="361.875"
            y2="118.607" gradientUnits="userSpaceOnUse">
            <stop stop-color="#B7ABFF" stop-opacity="0.42" />
            <stop offset="1" stop-color="white" stop-opacity="0" />
        </linearGradient>
        <linearGradient id="paint3_linear_11005_438" x1="538.999" y1="-51.05" x2="411.875"
            y2="118.607" gradientUnits="userSpaceOnUse">
            <stop stop-color="#B7ABFF" stop-opacity="0.42" />
            <stop offset="1" stop-color="white" stop-opacity="0" />
        </linearGradient>
        <linearGradient id="paint4_linear_11005_438" x1="586.999" y1="-49.05" x2="459.875"
            y2="120.607" gradientUnits="userSpaceOnUse">
            <stop stop-color="#B7ABFF" stop-opacity="0.42" />
            <stop offset="1" stop-color="white" stop-opacity="0" />
        </linearGradient>
        <linearGradient id="paint5_linear_11005_438" x1="612.999" y1="-10.05" x2="485.875"
            y2="159.607" gradientUnits="userSpaceOnUse">
            <stop stop-color="#B7ABFF" stop-opacity="0.42" />
            <stop offset="1" stop-color="white" stop-opacity="0" />
        </linearGradient>
        <linearGradient id="paint6_linear_11005_438" x1="647.999" y1="12.95" x2="520.875"
            y2="182.607" gradientUnits="userSpaceOnUse">
            <stop stop-color="#B7ABFF" stop-opacity="0.42" />
            <stop offset="1" stop-color="white" stop-opacity="0" />
        </linearGradient>
        <clipPath id="clip0_11005_438">
            <rect width="582" height="274" rx="20" fill="white" />
        </clipPath>
    </defs>
</svg>
    