<svg width="20" height="20" viewBox="0 0 20 20" fill="none" xmlns="http://www.w3.org/2000/svg">
<path fill-rule="evenodd" clip-rule="evenodd" d="M10.0003 1.04163C9.49616 1.04163 9.03199 1.16663 8.52449 1.37663C8.03366 1.57996 7.46366 1.87913 6.75449 2.25163L5.03116 3.15579C4.16033 3.61246 3.46449 3.97829 2.92533 4.33746C2.36866 4.70996 1.93866 5.10163 1.62616 5.63246C1.31449 6.16163 1.17449 6.73496 1.10699 7.41746C1.04199 8.07996 1.04199 8.89413 1.04199 9.91913V10.0808C1.04199 11.1058 1.04199 11.92 1.10699 12.5825C1.17449 13.2658 1.31533 13.8383 1.62616 14.3675C1.93866 14.8983 2.36783 15.29 2.92616 15.6625C3.46366 16.0216 4.16033 16.3875 5.03116 16.8441L6.75449 17.7483C7.46366 18.1208 8.03366 18.42 8.52449 18.6233C9.03283 18.8333 9.49616 18.9583 10.0003 18.9583C10.5045 18.9583 10.9687 18.8333 11.4762 18.6233C11.967 18.42 12.537 18.1208 13.2462 17.7483L14.9695 16.845C15.8403 16.3875 16.5362 16.0216 17.0745 15.6625C17.6328 15.29 18.062 14.8983 18.3745 14.3675C18.6862 13.8383 18.8262 13.265 18.8937 12.5825C18.9587 11.92 18.9587 11.1058 18.9587 10.0816V9.91829C18.9587 8.89413 18.9587 8.07996 18.8937 7.41746C18.8262 6.73413 18.6853 6.16163 18.3745 5.63246C18.062 5.10163 17.6328 4.70996 17.0745 4.33746C16.537 3.97829 15.8403 3.61246 14.9695 3.15579L13.2462 2.25163C12.537 1.87913 11.967 1.57996 11.4762 1.37663C10.9678 1.16663 10.5045 1.04163 10.0003 1.04163ZM7.30866 3.37163C8.05033 2.98246 8.57033 2.71079 9.00199 2.53246C9.42199 2.35829 9.71782 2.29163 10.0003 2.29163C10.2837 2.29163 10.5787 2.35829 10.9987 2.53246C11.4303 2.71079 11.9495 2.98246 12.6912 3.37163L14.3578 4.24663C15.2662 4.72246 15.9037 5.05829 16.3812 5.37663C16.6162 5.53413 16.8003 5.67996 16.9503 5.82663L14.1745 7.21413L7.09116 3.48579L7.30866 3.37163ZM5.78783 4.16996L5.64283 4.24663C4.73449 4.72246 4.09699 5.05829 3.62033 5.37663C3.41693 5.50848 3.22638 5.65914 3.05116 5.82663L10.0003 9.30163L12.7978 7.90163L5.95949 4.30329C5.89491 4.26923 5.83681 4.2241 5.78783 4.16996ZM2.44866 6.92246C2.40699 7.10079 2.37449 7.30329 2.35116 7.53913C2.29283 8.13413 2.29199 8.88663 2.29199 9.95079V10.0483C2.29199 11.1133 2.29199 11.8658 2.35116 12.46C2.40866 13.0408 2.51783 13.4166 2.70366 13.7333C2.88866 14.0475 3.15616 14.3133 3.62033 14.6233C4.09699 14.9416 4.73449 15.2775 5.64283 15.7533L7.30949 16.6283C8.05116 17.0175 8.57033 17.2891 9.00199 17.4675C9.13866 17.5241 9.26116 17.5691 9.37533 17.605V10.3858L2.44866 6.92246ZM10.6253 17.6041C10.7395 17.5691 10.862 17.5241 10.9987 17.4675C11.4303 17.2891 11.9495 17.0175 12.6912 16.6283L14.3578 15.7533C15.2662 15.2766 15.9037 14.9416 16.3812 14.6233C16.8445 14.3133 17.112 14.0475 17.2978 13.7333C17.4837 13.4166 17.592 13.0416 17.6495 12.46C17.7078 11.8658 17.7087 11.1133 17.7087 10.0491V9.95163C17.7087 8.88663 17.7087 8.13413 17.6495 7.53996C17.6307 7.33247 17.5982 7.12645 17.552 6.92329L14.792 8.30246V10.8333C14.792 10.9991 14.7261 11.158 14.6089 11.2752C14.4917 11.3924 14.3328 11.4583 14.167 11.4583C14.0012 11.4583 13.8423 11.3924 13.725 11.2752C13.6078 11.158 13.542 10.9991 13.542 10.8333V8.92829L10.6253 10.3866V17.6041Z" fill="#FCFCFD"/>
</svg>
