<svg width="18" height="18" viewBox="0 0 18 18" fill="none" xmlns="http://www.w3.org/2000/svg">
<path fill-rule="evenodd" clip-rule="evenodd" d="M4.99951 0C4.73432 5.66374e-05 4.48 0.105451 4.29251 0.293L0.292512 4.293C0.115822 4.46908 0.0113185 4.70483 -0.000488281 4.954M-0.000488281 5.008V15C-0.000488281 15.7956 0.315582 16.5587 0.878191 17.1213C1.4408 17.6839 2.20386 18 2.99951 18H14.9995C15.7952 18 16.5582 17.6839 17.1208 17.1213C17.6834 16.5587 17.9995 15.7956 17.9995 15V5.008L17.9985 4.954C17.987 4.70497 17.8828 4.46923 17.7065 4.293L13.7065 0.293C13.519 0.105451 13.2647 5.66374e-05 12.9995 0H4.99951M14.5855 4L12.5855 2H5.41351L3.41351 4H14.5855ZM3.99951 9C3.99951 8.73478 4.10487 8.48043 4.29241 8.29289C4.47994 8.10536 4.7343 8 4.99951 8H8.99951C9.26473 8 9.51908 8.10536 9.70662 8.29289C9.89415 8.48043 9.99951 8.73478 9.99951 9C9.99951 9.26522 9.89415 9.51957 9.70662 9.70711C9.51908 9.89464 9.26473 10 8.99951 10H4.99951C4.7343 10 4.47994 9.89464 4.29241 9.70711C4.10487 9.51957 3.99951 9.26522 3.99951 9Z" fill="#98A2B3"/>
</svg>
