<svg width="65" height="64" viewBox="0 0 65 64" fill="none" xmlns="http://www.w3.org/2000/svg">
    <rect x="1.29276" y="0.792762" width="62.4145" height="62.4145" rx="31.2072" fill="#F9FAFB" />
    <rect x="1.29276" y="0.792762" width="62.4145" height="62.4145" rx="31.2072" stroke="#EAECF0"
        stroke-width="1.58552" />
    <path
        d="M27.648 17.0525C24.4507 18.1617 21.6933 20.2669 19.781 23.059C17.8686 25.8511 16.902 29.1829 17.0231 32.5649C17.1442 35.947 18.3467 39.201 20.4539 41.8492C22.5611 44.4973 25.462 46.3999 28.7305 47.2775C31.3803 47.9612 34.1565 47.9913 36.8205 47.365C39.2338 46.8229 41.4649 45.6634 43.2955 44C45.2007 42.2159 46.5836 39.9462 47.2955 37.435C48.069 34.7041 48.2067 31.8323 47.698 29.04H32.818V35.2125H41.4355C41.2632 36.197 40.8942 37.1366 40.3504 37.9751C39.8065 38.8136 39.0991 39.5338 38.2705 40.0925C37.2183 40.7888 36.032 41.2572 34.788 41.4675C33.5403 41.6995 32.2606 41.6995 31.013 41.4675C29.7484 41.2063 28.5521 40.6844 27.5005 39.935C25.8108 38.739 24.5422 37.0398 23.8755 35.08C23.1977 33.0835 23.1977 30.919 23.8755 28.9225C24.35 27.523 25.1346 26.2488 26.1705 25.195C27.356 23.9669 28.8568 23.089 30.5084 22.6577C32.1599 22.2264 33.8984 22.2583 35.533 22.75C36.81 23.1418 37.9777 23.8267 38.943 24.75C39.9146 23.7833 40.8846 22.8142 41.853 21.8425C42.353 21.32 42.898 20.8225 43.3905 20.2875C41.9168 18.9163 40.1871 17.8493 38.3005 17.1475C34.8647 15.9 31.1054 15.8664 27.648 17.0525Z"
        fill="#FCFCFD" />
    <path
        d="M27.6474 17.0522C31.1046 15.8654 34.8639 15.898 38.2999 17.1447C40.1869 17.8513 41.9158 18.9234 43.3874 20.2997C42.8874 20.8347 42.3599 21.3347 41.8499 21.8547C40.8799 22.8231 39.9108 23.7881 38.9424 24.7497C37.9772 23.8264 36.8094 23.1416 35.5324 22.7497C33.8984 22.2563 32.16 22.2226 30.508 22.6521C28.856 23.0816 27.3542 23.9579 26.1674 25.1847C25.1315 26.2386 24.347 27.5128 23.8724 28.9122L18.6899 24.8997C20.545 21.2211 23.7568 18.4073 27.6474 17.0522Z"
        fill="#E33629" />
    <path
        d="M17.3151 28.8747C17.5935 27.4941 18.0559 26.1571 18.6901 24.8997L23.8726 28.9222C23.1948 30.9187 23.1948 33.0831 23.8726 35.0797C22.146 36.413 20.4185 37.753 18.6901 39.0997C17.103 35.9404 16.619 32.3409 17.3151 28.8747Z"
        fill="#FFB546" />
    <path
        d="M32.8175 29.0376H47.6975C48.2062 31.8299 48.0686 34.7017 47.295 37.4326C46.5831 39.9438 45.2002 42.2135 43.295 43.9976C41.6225 42.6926 39.9425 41.3976 38.27 40.0926C39.0992 39.5333 39.8069 38.8123 40.3508 37.9729C40.8946 37.1335 41.2634 36.193 41.435 35.2076H32.8175C32.815 33.1526 32.8175 31.0951 32.8175 29.0376Z"
        fill="#587DBD" />
    <path
        d="M18.6875 39.0998C20.4158 37.7665 22.1433 36.4265 23.87 35.0798C24.538 37.0403 25.8085 38.7396 27.5 39.9348C28.5549 40.6808 29.7537 41.1984 31.02 41.4548C32.2676 41.6869 33.5474 41.6869 34.795 41.4548C36.0391 41.2445 37.2253 40.7762 38.2775 40.0798C39.95 41.3848 41.63 42.6798 43.3025 43.9848C41.4722 45.6492 39.2411 46.8095 36.8275 47.3523C34.1635 47.9786 31.3873 47.9486 28.7375 47.2648C26.6418 46.7053 24.6842 45.7188 22.9875 44.3673C21.1918 42.9414 19.7251 41.1446 18.6875 39.0998Z"
        fill="#319F43" />
</svg>
    