<svg width="264" height="44" viewBox="0 0 264 44" fill="none" xmlns="http://www.w3.org/2000/svg">
    <g clip-path="url(#clip0_2034_1793)">
        <path
            d="M20.2764 15.2798C20.5315 14.8612 20.5008 14.3285 20.1994 13.942L11.7813 3.1499H28.0072C28.5483 3.1499 29.0596 3.39781 29.3947 3.82267L36.6022 12.9605C37.2122 13.7338 37.2768 14.805 36.7642 15.646L29.4584 27.6322C29.1376 28.1585 28.5657 28.4796 27.9494 28.4796H23.4229L31.4673 15.2818C31.723 14.8622 31.6916 14.3281 31.3884 13.9415L26.6204 7.8624H21.4173L25.4166 12.9615C26.023 13.7346 26.0859 14.8029 25.5745 15.642L17.4221 29.017C17.1678 29.4342 17.1974 29.9651 17.4965 30.3514L25.6242 40.8499H9.40219C8.85886 40.8499 8.34573 40.6 8.01077 40.1722L1.08941 31.3323C0.484092 30.5592 0.421641 29.4918 0.932673 28.6534L8.06208 16.9567C8.38287 16.4304 8.9547 16.1093 9.57106 16.1093H14.0975L6.23278 29.0124C5.97707 29.4319 6.00855 29.966 6.31175 30.3526L10.8488 36.1374H16.052L12.2836 31.3326C11.6772 30.5595 11.6142 29.4912 12.1256 28.6522L20.2764 15.2798Z"
            fill="black" />
    </g>
    <path
        d="M61.4154 34.504C59.4714 34.504 57.7554 34.156 56.2674 33.46C54.7794 32.764 53.6154 31.768 52.7754 30.472C51.9354 29.176 51.5154 27.616 51.5154 25.792V24.784H56.1954V25.792C56.1954 27.304 56.6634 28.444 57.5994 29.212C58.5354 29.956 59.8074 30.328 61.4154 30.328C63.0474 30.328 64.2594 30.004 65.0514 29.356C65.8674 28.708 66.2754 27.88 66.2754 26.872C66.2754 26.176 66.0714 25.612 65.6634 25.18C65.2794 24.748 64.7034 24.4 63.9354 24.136C63.1914 23.848 62.2794 23.584 61.1994 23.344L60.3714 23.164C58.6434 22.78 57.1554 22.3 55.9074 21.724C54.6834 21.124 53.7354 20.344 53.0634 19.384C52.4154 18.424 52.0914 17.176 52.0914 15.64C52.0914 14.104 52.4514 12.796 53.1714 11.716C53.9154 10.612 54.9474 9.772 56.2674 9.196C57.6114 8.596 59.1834 8.296 60.9834 8.296C62.7834 8.296 64.3794 8.608 65.7714 9.232C67.1874 9.832 68.2914 10.744 69.0834 11.968C69.8994 13.168 70.3074 14.68 70.3074 16.504V17.584H65.6274V16.504C65.6274 15.544 65.4354 14.776 65.0514 14.2C64.6914 13.6 64.1634 13.168 63.4674 12.904C62.7714 12.616 61.9434 12.472 60.9834 12.472C59.5434 12.472 58.4754 12.748 57.7794 13.3C57.1074 13.828 56.7714 14.56 56.7714 15.496C56.7714 16.12 56.9274 16.648 57.2394 17.08C57.5754 17.512 58.0674 17.872 58.7154 18.16C59.3634 18.448 60.1914 18.7 61.1994 18.916L62.0274 19.096C63.8274 19.48 65.3874 19.972 66.7074 20.572C68.0514 21.172 69.0954 21.964 69.8394 22.948C70.5834 23.932 70.9554 25.192 70.9554 26.728C70.9554 28.264 70.5594 29.62 69.7674 30.796C68.9994 31.948 67.8954 32.86 66.4554 33.532C65.0394 34.18 63.3594 34.504 61.4154 34.504ZM73.9234 34V8.8H78.4594V18.34H79.1074C79.2994 17.956 79.5994 17.572 80.0074 17.188C80.4154 16.804 80.9554 16.492 81.6274 16.252C82.3234 15.988 83.1994 15.856 84.2554 15.856C85.6474 15.856 86.8594 16.18 87.8914 16.828C88.9474 17.452 89.7634 18.328 90.3394 19.456C90.9154 20.56 91.2034 21.856 91.2034 23.344V34H86.6674V23.704C86.6674 22.36 86.3314 21.352 85.6594 20.68C85.0114 20.008 84.0754 19.672 82.8514 19.672C81.4594 19.672 80.3794 20.14 79.6114 21.076C78.8434 21.988 78.4594 23.272 78.4594 24.928V34H73.9234ZM95.387 34V16.144H99.923V34H95.387ZM97.655 14.056C96.839 14.056 96.143 13.792 95.567 13.264C95.015 12.736 94.739 12.04 94.739 11.176C94.739 10.312 95.015 9.616 95.567 9.088C96.143 8.56 96.839 8.296 97.655 8.296C98.495 8.296 99.191 8.56 99.743 9.088C100.295 9.616 100.571 10.312 100.571 11.176C100.571 12.04 100.295 12.736 99.743 13.264C99.191 13.792 98.495 14.056 97.655 14.056ZM104.23 41.2V16.144H108.694V18.304H109.342C109.75 17.608 110.386 16.996 111.25 16.468C112.114 15.916 113.35 15.64 114.958 15.64C116.398 15.64 117.73 16 118.954 16.72C120.178 17.416 121.162 18.448 121.906 19.816C122.65 21.184 123.022 22.84 123.022 24.784V25.36C123.022 27.304 122.65 28.96 121.906 30.328C121.162 31.696 120.178 32.74 118.954 33.46C117.73 34.156 116.398 34.504 114.958 34.504C113.878 34.504 112.966 34.372 112.222 34.108C111.502 33.868 110.914 33.556 110.458 33.172C110.026 32.764 109.678 32.356 109.414 31.948H108.766V41.2H104.23ZM113.59 30.544C115.006 30.544 116.17 30.1 117.082 29.212C118.018 28.3 118.486 26.98 118.486 25.252V24.892C118.486 23.164 118.018 21.856 117.082 20.968C116.146 20.056 114.982 19.6 113.59 19.6C112.198 19.6 111.034 20.056 110.098 20.968C109.162 21.856 108.694 23.164 108.694 24.892V25.252C108.694 26.98 109.162 28.3 110.098 29.212C111.034 30.1 112.198 30.544 113.59 30.544ZM126.467 41.2V16.144H130.931V18.304H131.579C131.987 17.608 132.623 16.996 133.487 16.468C134.351 15.916 135.587 15.64 137.195 15.64C138.635 15.64 139.967 16 141.191 16.72C142.415 17.416 143.399 18.448 144.143 19.816C144.887 21.184 145.259 22.84 145.259 24.784V25.36C145.259 27.304 144.887 28.96 144.143 30.328C143.399 31.696 142.415 32.74 141.191 33.46C139.967 34.156 138.635 34.504 137.195 34.504C136.115 34.504 135.203 34.372 134.459 34.108C133.739 33.868 133.151 33.556 132.695 33.172C132.263 32.764 131.915 32.356 131.651 31.948H131.003V41.2H126.467ZM135.827 30.544C137.243 30.544 138.407 30.1 139.319 29.212C140.255 28.3 140.723 26.98 140.723 25.252V24.892C140.723 23.164 140.255 21.856 139.319 20.968C138.383 20.056 137.219 19.6 135.827 19.6C134.435 19.6 133.271 20.056 132.335 20.968C131.399 21.856 130.931 23.164 130.931 24.892V25.252C130.931 26.98 131.399 28.3 132.335 29.212C133.271 30.1 134.435 30.544 135.827 30.544ZM148.704 34V16.144H153.24V34H148.704ZM150.972 14.056C150.156 14.056 149.46 13.792 148.884 13.264C148.332 12.736 148.056 12.04 148.056 11.176C148.056 10.312 148.332 9.616 148.884 9.088C149.46 8.56 150.156 8.296 150.972 8.296C151.812 8.296 152.508 8.56 153.06 9.088C153.612 9.616 153.888 10.312 153.888 11.176C153.888 12.04 153.612 12.736 153.06 13.264C152.508 13.792 151.812 14.056 150.972 14.056ZM157.546 34V16.144H162.01V18.484H162.658C162.946 17.86 163.486 17.272 164.278 16.72C165.07 16.144 166.27 15.856 167.878 15.856C169.27 15.856 170.482 16.18 171.514 16.828C172.57 17.452 173.386 18.328 173.962 19.456C174.538 20.56 174.826 21.856 174.826 23.344V34H170.29V23.704C170.29 22.36 169.954 21.352 169.282 20.68C168.634 20.008 167.698 19.672 166.474 19.672C165.082 19.672 164.002 20.14 163.234 21.076C162.466 21.988 162.082 23.272 162.082 24.928V34H157.546ZM178.146 25.144V24.568C178.146 22.696 178.518 21.1 179.262 19.78C180.006 18.436 180.99 17.416 182.214 16.72C183.462 16 184.818 15.64 186.282 15.64C187.914 15.64 189.15 15.928 189.99 16.504C190.83 17.08 191.442 17.68 191.826 18.304H192.474V16.144H196.938V37.168C196.938 38.392 196.578 39.364 195.858 40.084C195.138 40.828 194.178 41.2 192.978 41.2H181.026V37.24H191.394C192.066 37.24 192.402 36.88 192.402 36.16V31.516H191.754C191.514 31.9 191.178 32.296 190.746 32.704C190.314 33.088 189.738 33.412 189.018 33.676C188.298 33.94 187.386 34.072 186.282 34.072C184.818 34.072 183.462 33.724 182.214 33.028C180.99 32.308 180.006 31.288 179.262 29.968C178.518 28.624 178.146 27.016 178.146 25.144ZM187.578 30.112C188.97 30.112 190.134 29.668 191.07 28.78C192.006 27.892 192.474 26.644 192.474 25.036V24.676C192.474 23.044 192.006 21.796 191.07 20.932C190.158 20.044 188.994 19.6 187.578 19.6C186.186 19.6 185.022 20.044 184.086 20.932C183.15 21.796 182.682 23.044 182.682 24.676V25.036C182.682 26.644 183.15 27.892 184.086 28.78C185.022 29.668 186.186 30.112 187.578 30.112ZM209.523 34V8.8H219.891C221.475 8.8 222.867 9.124 224.067 9.772C225.291 10.396 226.239 11.284 226.911 12.436C227.607 13.588 227.955 14.956 227.955 16.54V17.044C227.955 18.604 227.595 19.972 226.875 21.148C226.179 22.3 225.219 23.2 223.995 23.848C222.795 24.472 221.427 24.784 219.891 24.784H214.275V34H209.523ZM214.275 20.464H219.423C220.551 20.464 221.463 20.152 222.159 19.528C222.855 18.904 223.203 18.052 223.203 16.972V16.612C223.203 15.532 222.855 14.68 222.159 14.056C221.463 13.432 220.551 13.12 219.423 13.12H214.275V20.464ZM230.674 34V16.144H235.138V18.16H235.786C236.05 17.44 236.482 16.912 237.082 16.576C237.706 16.24 238.426 16.072 239.242 16.072H241.402V20.104H239.17C238.018 20.104 237.07 20.416 236.326 21.04C235.582 21.64 235.21 22.576 235.21 23.848V34H230.674ZM252.091 34.504C250.315 34.504 248.719 34.144 247.303 33.424C245.887 32.704 244.771 31.66 243.955 30.292C243.139 28.924 242.731 27.28 242.731 25.36V24.784C242.731 22.864 243.139 21.22 243.955 19.852C244.771 18.484 245.887 17.44 247.303 16.72C248.719 16 250.315 15.64 252.091 15.64C253.867 15.64 255.463 16 256.879 16.72C258.295 17.44 259.411 18.484 260.227 19.852C261.043 21.22 261.451 22.864 261.451 24.784V25.36C261.451 27.28 261.043 28.924 260.227 30.292C259.411 31.66 258.295 32.704 256.879 33.424C255.463 34.144 253.867 34.504 252.091 34.504ZM252.091 30.472C253.483 30.472 254.635 30.028 255.547 29.14C256.459 28.228 256.915 26.932 256.915 25.252V24.892C256.915 23.212 256.459 21.928 255.547 21.04C254.659 20.128 253.507 19.672 252.091 19.672C250.699 19.672 249.547 20.128 248.635 21.04C247.723 21.928 247.267 23.212 247.267 24.892V25.252C247.267 26.932 247.723 28.228 248.635 29.14C249.547 30.028 250.699 30.472 252.091 30.472Z"
        fill="#1D2939" />
    <defs>
        <clipPath id="clip0_2034_1793">
            <rect width="37.7" height="37.7" fill="white" transform="translate(0 3.1499)" />
        </clipPath>
    </defs>
</svg>
    