<svg width="21" height="20" viewBox="0 0 21 20" fill="none" xmlns="http://www.w3.org/2000/svg">
<path d="M14.043 6.66065e-05H7.58301C5.79361 0.00271169 4.07826 0.71472 2.81296 1.98002C1.54766 3.24532 0.835653 4.96067 0.833008 6.75007V13.2501C0.835653 15.0395 1.54766 16.7548 2.81296 18.0201C4.07826 19.2854 5.79361 19.9974 7.58301 20.0001H14.083C15.8724 19.9974 17.5878 19.2854 18.8531 18.0201C20.1184 16.7548 20.8304 15.0395 20.833 13.2501V6.75007C20.8317 5.86064 20.6549 4.98022 20.3127 4.15925C19.9705 3.33829 19.4697 2.59292 18.8389 1.96586C18.2081 1.3388 17.4598 0.842383 16.6369 0.505054C15.8139 0.167726 14.9324 -0.00388151 14.043 6.66065e-05ZM7.26301 14.2301C7.26301 14.4422 7.17872 14.6457 7.02869 14.7958C6.87866 14.9458 6.67518 15.0301 6.46301 15.0301C6.25083 15.0301 6.04735 14.9458 5.89732 14.7958C5.74729 14.6457 5.66301 14.4422 5.66301 14.2301V9.13007C5.66301 8.91789 5.74729 8.71441 5.89732 8.56438C6.04735 8.41435 6.25083 8.33007 6.46301 8.33007C6.67518 8.33007 6.87866 8.41435 7.02869 8.56438C7.17872 8.71441 7.26301 8.91789 7.26301 9.13007V14.2301ZM11.713 14.2301C11.713 14.3351 11.6923 14.4392 11.6521 14.5362C11.6119 14.6333 11.553 14.7215 11.4787 14.7958C11.4044 14.87 11.3162 14.929 11.2192 14.9692C11.1221 15.0094 11.0181 15.0301 10.913 15.0301C10.808 15.0301 10.7039 15.0094 10.6069 14.9692C10.5098 14.929 10.4216 14.87 10.3473 14.7958C10.273 14.7215 10.2141 14.6333 10.1739 14.5362C10.1337 14.4392 10.113 14.3351 10.113 14.2301V5.78007C10.113 5.56789 10.1973 5.36441 10.3473 5.21438C10.4974 5.06435 10.7008 4.98007 10.913 4.98007C11.1252 4.98007 11.3287 5.06435 11.4787 5.21438C11.6287 5.36441 11.713 5.56789 11.713 5.78007V14.2301ZM15.923 14.2301C15.923 14.4422 15.8387 14.6457 15.6887 14.7958C15.5387 14.9458 15.3352 15.0301 15.123 15.0301C14.9108 15.0301 14.7074 14.9458 14.5573 14.7958C14.4073 14.6457 14.323 14.4422 14.323 14.2301V7.82007C14.323 7.60789 14.4073 7.40441 14.5573 7.25438C14.7074 7.10435 14.9108 7.02007 15.123 7.02007C15.3352 7.02007 15.5387 7.10435 15.6887 7.25438C15.8387 7.40441 15.923 7.60789 15.923 7.82007V14.2301Z" fill="#98A2B3"/>
</svg>
