<svg width="20" height="21" viewBox="0 0 20 21" fill="none" xmlns="http://www.w3.org/2000/svg">
    <path
        d="M7.5 4.90015H15C15.0331 4.90015 15.0654 4.91285 15.0889 4.93628C15.1123 4.95972 15.125 4.99199 15.125 5.02515V12.5251C15.125 12.5583 15.1123 12.5906 15.0889 12.614C15.0654 12.6374 15.0331 12.6501 15 12.6501C14.9671 12.6501 14.9355 12.6372 14.9121 12.614C14.8887 12.5906 14.875 12.5583 14.875 12.5251V5.32593L14.0215 6.17944L5.09766 15.1023C5.07433 15.1229 5.04489 15.135 5.01367 15.1345C4.98129 15.134 4.94966 15.1213 4.92676 15.0984C4.90387 15.0755 4.8912 15.0439 4.89062 15.0115C4.89015 14.9802 4.90121 14.9498 4.92188 14.9265L13.8457 6.00366L14.6992 5.15015H7.5L7.45215 5.14038C7.43738 5.13424 7.42369 5.12548 7.41211 5.11401C7.38867 5.09057 7.375 5.0583 7.375 5.02515C7.375 4.992 7.38867 4.95972 7.41211 4.93628C7.42369 4.92482 7.43738 4.91605 7.45215 4.90991L7.5 4.90015Z"
        fill="#1D2939" stroke="#FCFCFD" />
</svg>
    