<svg width="24" height="24" viewBox="0 0 24 24" fill="none" xmlns="http://www.w3.org/2000/svg">
<path d="M14.9995 4C15.5299 4 16.0387 4.21071 16.4137 4.58579C16.7888 4.96086 16.9995 5.46957 16.9995 6V7H18.5195C18.8193 7.00004 19.1152 7.06746 19.3854 7.19728C19.6556 7.3271 19.8932 7.51599 20.0805 7.75L21.5605 9.601C21.8446 9.95569 21.9994 10.3966 21.9995 10.851V15C21.9995 15.5304 21.7888 16.0391 21.4137 16.4142C21.0387 16.7893 20.5299 17 19.9995 17H18.9995C18.9995 17.7956 18.6834 18.5587 18.1208 19.1213C17.5582 19.6839 16.7952 20 15.9995 20C15.2039 20 14.4408 19.6839 13.8782 19.1213C13.3156 18.5587 12.9995 17.7956 12.9995 17H9.99951C9.99951 17.394 9.92191 17.7841 9.77115 18.1481C9.62039 18.512 9.39941 18.8427 9.12083 19.1213C8.84226 19.3999 8.51154 19.6209 8.14756 19.7716C7.78359 19.9224 7.39348 20 6.99951 20C6.60555 20 6.21544 19.9224 5.85146 19.7716C5.48748 19.6209 5.15677 19.3999 4.87819 19.1213C4.59962 18.8427 4.37864 18.512 4.22787 18.1481C4.07711 17.7841 3.99951 17.394 3.99951 17C3.46908 17 2.96037 16.7893 2.5853 16.4142C2.21023 16.0391 1.99951 15.5304 1.99951 15V6C1.99951 5.46957 2.21023 4.96086 2.5853 4.58579C2.96037 4.21071 3.46908 4 3.99951 4H14.9995ZM6.99951 16C6.7343 16 6.47994 16.1054 6.29241 16.2929C6.10487 16.4804 5.99951 16.7348 5.99951 17C5.99951 17.2652 6.10487 17.5196 6.29241 17.7071C6.47994 17.8946 6.7343 18 6.99951 18C7.26473 18 7.51908 17.8946 7.70662 17.7071C7.89415 17.5196 7.99951 17.2652 7.99951 17C7.99951 16.7348 7.89415 16.4804 7.70662 16.2929C7.51908 16.1054 7.26473 16 6.99951 16ZM15.9995 16C15.7343 16 15.4799 16.1054 15.2924 16.2929C15.1049 16.4804 14.9995 16.7348 14.9995 17C14.9995 17.2652 15.1049 17.5196 15.2924 17.7071C15.4799 17.8946 15.7343 18 15.9995 18C16.2647 18 16.5191 17.8946 16.7066 17.7071C16.8942 17.5196 16.9995 17.2652 16.9995 17C16.9995 16.7348 16.8942 16.4804 16.7066 16.2929C16.5191 16.1054 16.2647 16 15.9995 16ZM18.5195 9H16.9995V13H19.9995V10.85L18.5195 9Z" fill="#067647"/>
</svg>
