<svg width="19" height="18" viewBox="0 0 19 18" fill="none" xmlns="http://www.w3.org/2000/svg">
<path fill-rule="evenodd" clip-rule="evenodd" d="M9.49951 0C9.76473 0 10.0191 0.105357 10.2066 0.292893C10.3942 0.48043 10.4995 0.734784 10.4995 1V2.07C11.9955 2.28623 13.3813 2.98059 14.4501 4.04939C15.5189 5.11818 16.2133 6.50405 16.4295 8H17.4995C17.7647 8 18.0191 8.10536 18.2066 8.29289C18.3942 8.48043 18.4995 8.73478 18.4995 9C18.4995 9.26522 18.3942 9.51957 18.2066 9.70711C18.0191 9.89464 17.7647 10 17.4995 10H16.4295C16.2133 11.496 15.5189 12.8818 14.4501 13.9506C13.3813 15.0194 11.9955 15.7138 10.4995 15.93V17C10.4995 17.2652 10.3942 17.5196 10.2066 17.7071C10.0191 17.8946 9.76473 18 9.49951 18C9.23429 18 8.97994 17.8946 8.79241 17.7071C8.60487 17.5196 8.49951 17.2652 8.49951 17V15.93C7.00356 15.7138 5.61769 15.0194 4.5489 13.9506C3.4801 12.8818 2.78574 11.496 2.56951 10H1.49951C1.2343 10 0.979941 9.89464 0.792405 9.70711C0.604869 9.51957 0.499512 9.26522 0.499512 9C0.499512 8.73478 0.604869 8.48043 0.792405 8.29289C0.979941 8.10536 1.2343 8 1.49951 8H2.56951C2.78589 6.50411 3.48031 5.11833 4.54907 4.04956C5.61784 2.9808 7.00362 2.28638 8.49951 2.07V1C8.49951 0.734784 8.60487 0.48043 8.79241 0.292893C8.97994 0.105357 9.23429 0 9.49951 0ZM4.49951 9C4.49951 7.67392 5.0263 6.40215 5.96398 5.46447C6.90166 4.52678 8.17343 4 9.49951 4C10.8256 4 12.0974 4.52678 13.035 5.46447C13.9727 6.40215 14.4995 7.67392 14.4995 9C14.4995 10.3261 13.9727 11.5979 13.035 12.5355C12.0974 13.4732 10.8256 14 9.49951 14C8.17343 14 6.90166 13.4732 5.96398 12.5355C5.0263 11.5979 4.49951 10.3261 4.49951 9Z" fill="#98A2B3"/>
</svg>
