<svg width="38" height="38" viewBox="0 0 38 38" fill="none" xmlns="http://www.w3.org/2000/svg">
    <g clip-path="url(#clip0_2036_1845)">
        <path
            d="M20.2764 12.2798C20.5315 11.8612 20.5008 11.3285 20.1994 10.942L11.7813 0.149902H28.0072C28.5483 0.149902 29.0596 0.397814 29.3947 0.822675L36.6022 9.96048C37.2122 10.7338 37.2768 11.805 36.7642 12.646L29.4584 24.6322C29.1376 25.1585 28.5657 25.4796 27.9494 25.4796H23.4229L31.4673 12.2818C31.723 11.8622 31.6916 11.3281 31.3884 10.9415L26.6204 4.8624H21.4173L25.4166 9.96147C26.023 10.7346 26.0859 11.8029 25.5745 12.642L17.4221 26.017C17.1678 26.4342 17.1974 26.9651 17.4965 27.3514L25.6242 37.8499H9.40219C8.85886 37.8499 8.34573 37.6 8.01077 37.1722L1.08941 28.3323C0.484092 27.5592 0.421641 26.4918 0.932673 25.6534L8.06208 13.9567C8.38287 13.4304 8.9547 13.1093 9.57106 13.1093H14.0975L6.23278 26.0124C5.97707 26.4319 6.00855 26.966 6.31175 27.3526L10.8488 33.1374H16.052L12.2836 28.3326C11.6772 27.5595 11.6142 26.4912 12.1256 25.6522L20.2764 12.2798Z"
            fill="black" />
    </g>
    <defs>
        <clipPath id="clip0_2036_1845">
            <rect width="37.7" height="37.7" fill="white" transform="translate(0 0.149902)" />
        </clipPath>
    </defs>
</svg>
    